<?xml version="1.0" standalone="no"?>
<!DOCTYPE svg PUBLIC "-//W3C//DTD SVG 20010904//EN"
 "http://www.w3.org/TR/2001/REC-SVG-20010904/DTD/svg10.dtd">
<svg version="1.0" xmlns="http://www.w3.org/2000/svg"
 width="3416.000000pt" height="1200.000000pt" viewBox="0 0 3416.000000 1200.000000"
 preserveAspectRatio="xMidYMid meet">

<g transform="translate(0.000000,1200.000000) scale(0.100000,-0.100000)"
fill="#000000" stroke="none">
<path d="M4864 9742 c-212 -155 -321 -384 -343 -725 -30 -456 133 -837 626
-1464 390 -495 522 -707 596 -955 42 -142 52 -214 51 -378 -1 -134 -5 -169
-27 -254 -39 -146 -97 -256 -180 -338 -37 -38 -72 -68 -77 -68 -6 0 -10 51
-10 130 0 80 -6 160 -16 207 -47 229 -196 471 -554 898 -449 536 -597 736
-710 964 -88 179 -102 242 -109 513 l-6 218 -45 -30 c-158 -105 -273 -295
-326 -540 -26 -120 -26 -410 0 -530 73 -338 201 -561 626 -1090 410 -510 576
-820 621 -1158 14 -108 6 -336 -15 -412 -27 -98 -91 -210 -163 -289 l-68 -75
-6 110 c-7 125 -17 153 -103 304 -127 221 -338 521 -667 948 -221 287 -360
482 -451 636 -76 127 -138 264 -138 305 0 11 -4 22 -9 25 -9 6 -233 -60 -396
-117 -665 -232 -1072 -460 -1401 -784 -156 -153 -264 -327 -314 -503 -33 -117
-38 -282 -11 -395 56 -233 175 -431 377 -625 174 -168 364 -295 639 -430 213
-105 320 -148 555 -225 472 -153 984 -246 1581 -286 183 -12 733 0 994 22 957
79 1833 364 2388 777 127 94 325 292 395 395 82 118 150 271 174 385 26 127
21 338 -11 450 -78 271 -335 571 -694 811 -282 189 -876 421 -1320 517 -79 17
-88 21 -83 39 3 11 9 72 12 135 10 173 -18 307 -108 520 -93 220 -184 354
-694 1025 -449 591 -541 801 -532 1210 1 85 0 155 -3 155 -3 0 -24 -13 -45
-28z"/>
<path d="M28163 7985 c-191 -117 -518 -276 -680 -329 l-53 -18 0 -99 c0 -54 1
-99 3 -99 2 0 37 12 78 26 140 50 253 33 307 -46 l22 -33 0 -673 0 -674 -52
21 c-224 89 -307 107 -523 116 -264 10 -402 -17 -610 -118 -299 -145 -539
-418 -655 -744 -54 -154 -71 -252 -77 -445 -11 -359 62 -623 232 -838 97 -123
251 -243 400 -313 132 -62 211 -80 377 -86 349 -13 576 59 876 279 57 42 57
42 66 -34 8 -67 53 -198 85 -246 l27 -41 209 93 c116 51 230 101 254 112 25
10 97 42 160 71 l116 52 3 90 3 91 -53 -21 c-122 -49 -202 -60 -262 -35 -41
17 -90 75 -105 125 -8 28 -11 546 -11 1950 l0 1911 -32 0 c-21 0 -59 -17 -105
-45z m-753 -2045 c95 -27 234 -100 344 -180 l86 -62 0 -777 -1 -776 -98 -58
c-124 -73 -236 -120 -326 -138 -42 -8 -139 -13 -245 -14 -167 0 -178 1 -238
26 -97 42 -169 88 -239 157 -270 265 -404 792 -307 1211 71 307 289 546 559
614 98 25 104 26 250 22 107 -2 158 -8 215 -25z"/>
<path d="M11420 7663 c-152 -7 -345 -48 -465 -98 -158 -66 -255 -127 -370
-236 -233 -221 -335 -454 -335 -765 0 -286 105 -502 352 -719 124 -109 181
-140 908 -493 471 -229 599 -339 682 -592 29 -88 31 -106 32 -235 1 -162 -16
-229 -86 -348 -206 -351 -743 -489 -1160 -299 -274 125 -464 365 -524 664
l-18 88 -94 0 -94 0 6 -77 c3 -43 11 -247 17 -453 6 -206 13 -376 14 -378 5
-6 106 -31 265 -67 221 -49 439 -75 695 -82 266 -7 337 1 530 64 388 126 607
297 748 584 111 226 156 579 101 794 -20 79 -102 246 -156 316 -117 154 -262
280 -423 369 -80 44 -342 174 -485 241 -209 96 -441 218 -527 275 -145 98
-257 239 -298 374 -26 86 -32 282 -10 355 70 245 275 417 560 470 171 33 438
3 582 -64 252 -119 397 -340 434 -666 6 -55 13 -106 15 -112 4 -15 199 -19
208 -5 5 8 -12 944 -18 949 -5 6 -235 51 -417 82 -266 45 -532 71 -669 64z"/>
<path d="M19192 6884 c-221 -375 -478 -658 -785 -864 -76 -51 -82 -58 -85 -93
l-3 -37 275 0 276 0 0 -717 c0 -407 4 -757 10 -808 33 -300 169 -516 406 -648
126 -70 178 -82 359 -82 154 0 162 1 215 27 40 20 337 258 428 343 6 5 -60
125 -68 125 -4 0 -63 -28 -131 -63 -68 -35 -148 -68 -177 -75 -122 -28 -264
-7 -369 54 -88 51 -172 180 -213 326 -19 70 -20 101 -20 795 l0 723 398 2 397
3 42 115 c22 63 39 118 36 122 -2 5 -200 8 -439 8 l-434 0 0 395 0 395 -45 0
c-43 0 -47 -2 -73 -46z"/>
<path d="M14110 6176 c-129 -27 -293 -104 -500 -232 -109 -67 -236 -187 -270
-254 -28 -54 -39 -184 -21 -257 13 -58 81 -203 95 -203 10 0 336 167 349 179
4 4 -6 42 -23 84 -86 215 9 378 265 452 224 66 448 -82 515 -340 22 -88 40
-254 40 -385 l0 -85 -172 -64 c-212 -79 -590 -229 -678 -269 -36 -16 -87 -39
-113 -51 -92 -42 -212 -120 -260 -168 -105 -104 -154 -276 -128 -450 21 -148
72 -247 184 -357 109 -107 231 -146 457 -146 263 0 447 66 664 240 l63 49 23
-82 c46 -163 80 -217 134 -217 17 0 130 43 251 96 121 53 258 112 304 132 l84
37 1 83 c1 46 -1 85 -5 88 -3 2 -44 -10 -90 -26 -137 -48 -232 -37 -274 33
-19 31 -20 60 -25 802 l-5 770 -27 80 c-62 183 -177 314 -345 392 -142 66
-361 96 -493 69z m450 -1631 l0 -395 -86 -67 c-190 -150 -346 -197 -528 -158
-119 25 -222 115 -276 240 -28 64 -37 175 -20 246 11 45 23 64 75 114 85 83
133 109 472 256 164 71 312 136 328 143 17 8 31 15 33 15 1 1 2 -177 2 -394z"/>
<path d="M16185 6139 c-100 -62 -412 -216 -525 -259 -47 -18 -92 -36 -100 -40
-11 -5 -16 -29 -18 -99 -1 -50 -1 -91 1 -91 3 0 29 11 58 24 123 54 209 53
261 -1 75 -78 80 -142 76 -998 l-3 -710 -22 -42 c-22 -40 -66 -81 -108 -98
-11 -5 -74 -11 -140 -14 l-120 -6 -3 -87 -3 -88 591 0 591 0 -3 88 -3 87 -142
5 c-131 5 -144 7 -165 28 l-23 23 -3 843 -2 843 87 70 c154 123 268 189 381
219 75 20 249 20 324 0 162 -44 288 -191 334 -391 18 -74 19 -134 19 -785 0
-753 1 -743 -49 -798 -36 -41 -58 -47 -186 -52 l-125 -5 -3 -87 -3 -88 601 0
601 0 -3 88 -3 87 -152 5 c-144 5 -153 6 -179 30 -61 57 -58 22 -65 870 -5
768 -5 776 -28 848 -98 315 -321 539 -607 608 -104 25 -252 23 -344 -5 -171
-52 -362 -173 -550 -349 l-85 -80 -3 229 -2 229 -38 -1 c-26 0 -61 -15 -117
-50z"/>
<path d="M21425 6184 c-11 -2 -44 -9 -74 -15 -169 -34 -518 -229 -658 -366
-108 -107 -143 -222 -109 -365 17 -73 80 -208 97 -208 9 0 273 135 331 170
l26 16 -31 69 c-27 60 -32 82 -32 150 0 69 4 86 27 127 36 59 91 106 173 146
84 42 152 56 239 50 89 -6 158 -39 237 -115 119 -113 169 -287 169 -584 l0
-126 -182 -68 c-527 -195 -850 -338 -974 -428 -134 -99 -194 -224 -194 -408 0
-183 43 -297 161 -423 83 -88 169 -137 289 -162 108 -23 366 -14 469 16 139
40 273 112 392 211 26 22 51 39 56 39 4 0 17 -30 27 -67 47 -167 81 -223 134
-223 16 0 96 29 178 64 247 107 438 191 452 199 14 9 18 177 4 177 -5 0 -45
-13 -90 -30 -103 -37 -178 -40 -229 -8 -70 43 -67 7 -73 863 -5 709 -7 774
-24 825 -89 268 -309 435 -621 470 -91 10 -134 11 -170 4z m395 -1648 l0 -394
-22 -15 c-13 -8 -34 -25 -48 -37 -119 -106 -292 -180 -420 -180 -78 0 -182 24
-227 53 -91 58 -166 167 -189 277 -35 167 29 285 207 387 60 34 664 300 687
302 9 1 12 -84 12 -393z"/>
<path d="M23460 6144 c-116 -70 -455 -236 -557 -273 l-93 -33 0 -95 c0 -72 3
-94 13 -90 148 66 217 76 278 41 42 -24 76 -89 89 -170 11 -64 14 -1511 4
-1562 -9 -43 -69 -111 -118 -133 -32 -14 -66 -19 -153 -19 l-113 0 0 -90 0
-90 590 0 591 0 -3 88 -3 87 -141 3 c-136 2 -143 4 -167 27 -13 14 -27 42 -31
63 -3 20 -6 399 -6 842 l0 805 82 65 c157 125 281 197 388 225 74 19 240 22
314 5 96 -21 188 -85 250 -174 51 -73 70 -113 93 -197 16 -58 18 -128 18 -799
0 -724 0 -736 -21 -774 -37 -72 -58 -81 -205 -84 l-129 -4 0 -89 0 -89 600 0
601 0 -3 88 -3 87 -151 5 c-166 6 -189 13 -221 73 -17 30 -18 90 -23 802 -6
750 -6 772 -27 847 -49 174 -123 306 -235 415 -113 112 -206 168 -343 208
-113 34 -264 38 -365 11 -179 -48 -379 -175 -577 -368 l-73 -70 -2 229 -3 228
-35 2 c-26 2 -54 -9 -110 -43z"/>
<path d="M32105 6154 c-111 -98 -358 -238 -582 -329 l-93 -38 0 -82 c0 -45 3
-84 6 -87 3 -3 33 5 67 19 38 16 90 28 134 31 72 5 73 4 107 -30 62 -62 61
-44 61 -908 l0 -785 -30 -42 c-18 -26 -49 -53 -79 -68 -45 -22 -62 -25 -163
-25 l-113 0 0 -90 0 -90 590 0 591 0 -3 88 -3 87 -142 5 c-140 5 -143 6 -170
33 l-28 27 0 708 c0 639 2 714 17 775 44 168 161 323 297 392 129 65 349 72
461 15 48 -24 105 -88 120 -134 11 -34 14 -36 56 -36 l44 0 0 264 0 264 -52
16 c-29 9 -101 26 -161 38 -104 21 -110 21 -199 5 -124 -22 -213 -67 -304
-154 -95 -91 -179 -189 -253 -297 l-61 -89 -2 274 -3 274 -35 2 c-28 2 -43 -4
-75 -33z"/>
<path d="M29925 6170 c-68 -9 -181 -48 -270 -93 -248 -124 -489 -370 -610
-621 -151 -315 -164 -677 -36 -1024 144 -394 486 -699 876 -784 116 -25 440
-36 567 -19 171 23 388 103 602 221 l96 53 0 82 c0 45 -3 85 -6 88 -4 4 -19
-2 -33 -12 -87 -62 -277 -136 -442 -173 -87 -19 -133 -23 -284 -23 -195 0
-267 11 -395 62 -267 106 -482 392 -554 738 -12 59 -30 195 -51 382 l-5 43
908 2 907 3 -2 70 c-8 220 -111 524 -229 672 -145 183 -399 304 -699 333 -116
11 -254 11 -340 0z m327 -214 c88 -19 162 -55 240 -117 149 -119 208 -237 233
-466 l7 -63 -675 0 -675 0 14 73 c18 98 39 160 80 237 89 171 246 297 415 334
85 18 277 19 361 2z"/>
</g>
</svg>
