<?xml version="1.0" standalone="no"?>
<!DOCTYPE svg PUBLIC "-//W3C//DTD SVG 20010904//EN"
 "http://www.w3.org/TR/2001/REC-SVG-20010904/DTD/svg10.dtd">
<svg version="1.0" xmlns="http://www.w3.org/2000/svg"
 width="1280.000000pt" height="854.000000pt" viewBox="0 0 1280.000000 854.000000"
 preserveAspectRatio="xMidYMid meet">

<g transform="translate(0.000000,854.000000) scale(0.100000,-0.100000)"
fill="#000000" stroke="none">
<path d="M0 4265 l0 -1875 6400 0 6400 0 0 1875 0 1875 -6400 0 -6400 0 0
-1875z m1950 1143 c1 -114 42 -198 195 -396 168 -218 219 -315 218 -425 l0
-57 41 -11 c306 -80 509 -206 586 -365 35 -72 34 -170 -2 -244 -122 -248 -562
-420 -1076 -420 -380 0 -708 86 -916 239 -155 115 -214 271 -153 404 64 140
254 271 516 357 109 35 121 36 121 11 0 -26 74 -137 223 -333 130 -171 180
-256 193 -323 l7 -39 28 32 c75 84 62 266 -29 408 -21 32 -82 114 -135 182
-109 138 -162 238 -176 330 -11 66 -1 160 23 216 14 34 63 96 76 96 4 0 9 -33
12 -72 5 -98 51 -192 158 -323 178 -219 208 -258 239 -317 24 -48 31 -73 31
-119 0 -69 16 -77 51 -28 48 68 62 181 33 280 -22 75 -62 141 -156 261 -175
223 -222 320 -222 463 0 49 6 99 17 130 17 50 70 125 88 125 5 0 9 -28 9 -62z
m8100 -968 c3 -366 6 -666 8 -667 1 -1 9 -9 18 -17 19 -20 60 -20 98 -1 38 20
38 20 34 -16 -3 -31 -8 -34 -142 -90 -76 -33 -145 -59 -153 -59 -8 0 -24 22
-36 49 l-23 48 -39 -28 c-65 -46 -137 -69 -218 -69 -240 0 -407 172 -407 420
0 184 103 351 264 431 63 30 80 34 170 37 84 3 110 0 156 -17 30 -12 61 -21
68 -21 16 0 17 412 1 459 -13 37 -45 53 -88 45 -24 -5 -30 -2 -36 16 -4 12 -5
23 -3 25 13 13 287 123 303 122 20 -2 20 -11 25 -667z m-5950 530 c36 -5 102
-17 148 -27 l82 -16 0 -169 0 -169 -26 3 c-23 2 -29 10 -38 49 -25 97 -96 183
-191 230 -72 35 -181 34 -250 -2 -69 -35 -108 -98 -107 -173 1 -118 47 -162
295 -288 205 -103 286 -168 334 -266 25 -50 28 -68 28 -147 -1 -69 -6 -103
-24 -147 -42 -108 -130 -189 -250 -230 -58 -20 -85 -23 -231 -23 -127 0 -184
4 -247 19 l-83 19 0 169 0 168 24 0 c20 0 25 -7 31 -37 30 -163 213 -285 379
-253 218 42 303 265 151 399 -20 17 -127 77 -237 132 -235 118 -297 168 -337
274 -32 83 -27 198 12 277 49 99 164 185 279 207 61 12 181 13 258 1z m2710
-370 l0 -140 145 0 c80 0 145 -2 145 -5 0 -2 -8 -20 -17 -40 l-17 -35 -128 0
-128 0 0 -243 c0 -276 8 -327 61 -371 38 -33 106 -35 180 -6 53 20 72 18 67
-5 -2 -7 -41 -45 -87 -84 -79 -66 -88 -71 -132 -71 -69 0 -154 35 -199 82 -68
69 -73 97 -78 416 l-4 282 -89 0 c-111 0 -116 13 -24 65 88 49 175 132 232
221 25 41 52 74 60 74 10 0 13 -30 13 -140z m-1725 -144 c28 -12 65 -39 83
-60 62 -71 65 -86 71 -367 7 -294 7 -293 80 -287 25 3 54 8 64 12 27 13 23
-40 -5 -55 -35 -19 -262 -109 -274 -109 -6 0 -22 20 -35 45 -13 25 -26 44 -29
42 -3 -2 -40 -20 -83 -41 -122 -61 -241 -62 -309 -3 -38 33 -69 98 -75 159 -4
43 0 61 19 98 35 65 97 104 286 180 l167 67 3 47 c4 62 -21 136 -59 172 -26
24 -38 29 -83 29 -42 0 -60 -6 -88 -27 -50 -38 -74 -92 -61 -139 l10 -37 -54
-26 c-29 -14 -56 -26 -58 -26 -3 0 -14 19 -26 42 -43 84 -6 160 117 236 86 53
140 70 224 71 48 1 78 -5 115 -23z m677 -38 l3 -61 32 27 c17 14 61 40 97 57
159 75 322 35 387 -94 27 -52 38 -174 39 -432 0 -141 4 -205 13 -216 18 -24
52 -39 86 -39 26 0 31 -4 31 -25 l0 -25 -231 0 -230 0 3 22 c2 18 12 24 48 30
24 4 53 17 65 28 19 20 20 32 20 283 0 257 0 263 -23 303 -13 22 -38 49 -54
59 -60 35 -181 16 -255 -41 l-33 -25 0 -275 0 -276 29 -29 c22 -21 39 -29 65
-29 32 0 36 -3 36 -25 l0 -25 -225 0 -225 0 0 25 c0 22 4 25 36 25 26 0 43 8
65 29 l29 29 0 275 c0 265 -1 275 -21 301 -18 23 -28 27 -62 24 -34 -3 -41 0
-48 20 -7 18 -5 24 9 29 9 3 73 30 142 59 69 29 135 53 147 54 20 0 22 -6 25
-62z m1963 32 c55 -28 107 -95 125 -158 5 -20 10 -136 11 -257 0 -143 4 -232
12 -255 12 -34 14 -35 62 -35 28 1 58 5 68 9 14 7 17 3 17 -22 0 -29 -4 -31
-145 -87 -159 -64 -163 -64 -187 1 -7 19 -15 33 -18 32 -3 -2 -40 -21 -83 -42
-66 -33 -90 -40 -155 -43 -66 -4 -83 -1 -122 19 -26 13 -58 41 -75 66 -27 40
-30 51 -30 122 0 72 2 81 31 117 43 53 110 91 284 159 l150 59 0 55 c0 72 -15
122 -46 159 -50 60 -145 51 -209 -20 -35 -39 -37 -44 -33 -97 l5 -55 -54 -24
c-30 -14 -58 -21 -63 -17 -4 5 -15 30 -24 56 -16 50 -11 85 19 132 27 41 147
115 245 150 8 3 49 4 90 3 58 -1 87 -8 125 -27z m675 -31 l0 -61 39 31 c61 48
146 83 217 89 119 9 207 -34 259 -129 l30 -54 5 -292 c6 -332 4 -326 90 -341
36 -6 46 -12 48 -30 l3 -22 -230 0 -231 0 0 25 c0 22 4 25 34 25 22 0 45 9 65
26 l31 26 0 257 c0 246 -1 259 -22 301 -52 101 -180 112 -305 27 l-33 -22 0
-286 c0 -324 -3 -313 81 -327 35 -6 45 -12 47 -30 l3 -22 -231 0 -231 0 3 22
c2 18 12 24 47 30 84 14 81 2 81 334 l0 294 -25 16 c-17 11 -35 14 -59 10 -29
-6 -34 -3 -39 16 -4 13 -3 26 1 29 15 14 278 118 300 119 20 0 22 -4 22 -61z
m2491 31 c122 -48 212 -167 225 -297 l7 -63 -314 -2 -313 -3 3 -54 c7 -138 80
-260 179 -298 92 -36 249 -14 360 49 l53 30 -3 -53 -3 -52 -84 -43 c-104 -52
-187 -74 -283 -74 -216 0 -367 115 -414 316 -56 241 81 481 321 561 59 19 197
11 266 -17z m661 -42 l3 -71 30 42 c16 24 51 56 80 72 41 24 61 29 117 29 37
0 79 -5 93 -12 24 -11 25 -14 25 -110 0 -87 -2 -98 -18 -98 -10 0 -26 14 -35
30 -23 38 -65 60 -117 60 -48 0 -85 -17 -121 -57 -60 -66 -59 -62 -59 -328 l0
-247 29 -29 c22 -21 39 -29 65 -29 32 0 36 -3 36 -25 l0 -25 -225 0 -225 0 0
25 c0 21 5 25 31 25 34 0 68 15 86 39 9 12 12 92 13 298 0 280 0 282 -22 303
-18 17 -31 20 -60 16 -31 -5 -38 -3 -43 15 -4 12 -3 25 2 29 15 15 268 119
290 119 21 1 22 -4 25 -71z"/>
<path d="M9582 4388 c-62 -14 -133 -85 -162 -163 -38 -102 -29 -256 22 -360
75 -151 242 -195 381 -100 l37 26 0 262 0 262 -33 22 c-73 50 -167 70 -245 51z"/>
<path d="M4927 4003 c-120 -50 -163 -86 -173 -140 -8 -44 16 -95 59 -127 50
-37 160 -21 220 32 15 13 17 34 17 149 0 73 -3 133 -7 133 -5 -1 -57 -21 -116
-47z"/>
<path d="M7575 4012 c-163 -67 -195 -94 -195 -164 0 -118 114 -168 237 -105
l52 27 3 140 c2 77 1 140 -2 140 -3 -1 -45 -18 -95 -38z"/>
<path d="M10635 4374 c-61 -33 -108 -91 -129 -161 l-7 -23 222 0 222 0 -7 32
c-9 44 -47 100 -92 135 -31 23 -48 28 -108 31 -51 2 -79 -2 -101 -14z"/>
</g>
</svg>
